<svg xmlns="http://www.w3.org/2000/svg" enable-background="new 0 0 512 512" viewBox="0 0 512 512" id="reject">
<path fill="#f2f0f0" d="M404.693,101.813v389.134c0,9.581-7.767,17.348-17.348,17.348H53.149c-9.581,0-17.348-7.767-17.348-17.348V20.563c0-9.581,7.767-17.348,17.348-17.348h252.888L404.693,101.813z"></path><path d="M377.316,74.451v433.843h10.029c9.581,0,17.348-7.767,17.348-17.348V101.813L377.316,74.451z" opacity=".08"></path><path fill="#e5e3e5" d="M404.693,101.813h-81.308c-9.581,0-17.348-7.767-17.348-17.348V3.214L404.693,101.813z"></path><path fill="#66d5f2" d="M223.058,114.214c0,42.129-34.16,76.288-76.287,76.288c-41.841,0-76.249-33.827-76.249-76.288c0-42.114,34.135-76.287,76.249-76.287C188.923,37.926,223.058,72.1,223.058,114.214z"></path><path d="M223.078,114.237c0,19.617-7.434,37.521-19.578,51.027c-11.832,13.117-28.569,22.458-47.718,24.716c-0.701,0.078-1.401,0.156-2.102,0.195c-1.246,0.156-2.53,0.234-3.853,0.272c-1.012,0.039-2.024,0.039-3.036,0.039c-1.051,0-2.102,0-3.153-0.039c-0.973-0.039-1.946-0.117-2.88-0.195c0.272,0,0.506-0.039,0.778-0.078c0.701-0.039,1.401-0.117,2.102-0.195c19.111-2.258,35.847-11.599,47.68-24.716c12.182-13.506,19.578-31.41,19.578-51.027c0-40.09-30.904-72.94-70.216-76.015c2.024-0.195,4.048-0.272,6.111-0.272C188.904,37.949,223.078,72.084,223.078,114.237z" opacity=".08"></path><path fill="#fff" d="M173.529 95.049l-3.543 16.144c-2.371 10.896-12.041 18.674-23.203 18.674-10.862 0-20.742-7.461-23.203-18.674l-3.543-16.144c-3.223-14.812 8.045-28.824 23.23-28.824h7.06C165.484 66.225 176.779 80.237 173.529 95.049zM209.163 158.118c-13.784 19.607-36.701 32.383-62.392 32.383-25.727 0-48.813-12.919-62.353-32.344l2.335-6.695c3.814-10.937 14.168-18.293 25.766-18.293h11.599c2.569 0 5.021 1.285 6.461 3.464l9.731 14.518c3.075 4.593 9.847 4.593 12.922 0l9.77-14.518c1.44-2.18 3.853-3.464 6.461-3.464H181.1c11.599 0 21.913 7.317 25.728 18.293L209.163 158.118z"></path><path fill="#e5e3e5" d="M368.349 226.423L368.349 226.423c0-6.235-5.054-11.289-11.289-11.289H83.481c-6.235 0-11.289 5.054-11.289 11.289v0c0 6.235 5.054 11.289 11.289 11.289H357.06C363.295 237.712 368.349 232.657 368.349 226.423zM368.349 273.603L368.349 273.603c0-6.235-5.054-11.289-11.289-11.289H83.481c-6.235 0-11.289 5.054-11.289 11.289v0c0 6.235 5.054 11.289 11.289 11.289H357.06C363.295 284.892 368.349 279.838 368.349 273.603zM287.751 320.784L287.751 320.784c0-6.235-5.054-11.289-11.289-11.289H83.481c-6.235 0-11.289 5.054-11.289 11.289v0c0 6.235 5.054 11.289 11.289 11.289h192.981C282.697 332.072 287.751 327.018 287.751 320.784zM249.125 367.964L249.125 367.964c0-6.235-5.054-11.289-11.289-11.289H83.481c-6.235 0-11.289 5.054-11.289 11.289l0 0c0 6.235 5.054 11.289 11.289 11.289h154.355C244.071 379.253 249.125 374.199 249.125 367.964zM249.125 415.144L249.125 415.144c0-6.235-5.054-11.289-11.289-11.289H83.481c-6.235 0-11.289 5.054-11.289 11.289l0 0c0 6.235 5.054 11.289 11.289 11.289h154.355C244.071 426.433 249.125 421.379 249.125 415.144zM249.118 462.325L249.118 462.325c0-6.235-5.054-11.289-11.289-11.289H83.481c-6.235 0-11.289 5.054-11.289 11.289v0c0 6.235 5.054 11.289 11.289 11.289H237.83C244.064 473.614 249.118 468.559 249.118 462.325z"></path><path d="M368.324 226.436c0 6.245-5.031 11.276-11.276 11.276h-22.032c6.188 0 11.276-5.031 11.276-11.276 0-6.245-5.089-11.276-11.276-11.276h22.032C363.293 215.159 368.324 220.19 368.324 226.436zM368.324 273.623c0 6.188-5.031 11.276-11.276 11.276h-22.032c6.188 0 11.276-5.089 11.276-11.276 0-6.245-5.089-11.334-11.276-11.334h22.032C363.293 262.289 368.324 267.378 368.324 273.623zM287.726 320.811c0 6.188-5.031 11.276-11.276 11.276h-22.032c6.188 0 11.276-5.089 11.276-11.276 0-6.245-5.089-11.334-11.276-11.334h22.032C282.695 309.476 287.726 314.565 287.726 320.811zM249.1 367.94c0 6.245-5.031 11.334-11.276 11.334h-22.032c6.188 0 11.276-5.089 11.276-11.334 0-6.188-5.089-11.276-11.276-11.276h22.032C244.069 356.664 249.1 361.753 249.1 367.94zM249.1 415.128c0 6.245-5.031 11.334-11.276 11.334h-22.032c6.188 0 11.276-5.089 11.276-11.334s-5.089-11.276-11.276-11.276h22.032C244.069 403.851 249.1 408.882 249.1 415.128zM249.141 462.315c0 6.245-5.089 11.276-11.334 11.276h-22.032c6.188 0 11.276-5.031 11.276-11.276 0-6.245-5.089-11.276-11.276-11.276h22.032C244.052 451.039 249.141 456.07 249.141 462.315z" opacity=".08"></path><path fill="#f96464" d="M476.202,411.53c0,53.466-43.299,96.765-96.674,96.765c-53.466,0-96.764-43.299-96.764-96.765c0-53.375,43.299-96.674,96.764-96.674C432.903,314.856,476.202,358.155,476.202,411.53z"></path><path d="M476.195,411.523c0,53.463-43.308,96.771-96.664,96.771c-3.976,0-7.898-0.215-11.714-0.752c47.875-5.749,84.95-46.532,84.95-96.019c0-49.38-37.075-90.162-84.95-95.911c3.815-0.538,7.737-0.752,11.714-0.752C432.887,314.86,476.195,358.168,476.195,411.523z" opacity=".08"></path><path fill="#fff" d="M426.654,435.918c6.287,6.287,6.287,16.496,0,22.782c-6.298,6.298-16.526,6.311-22.836,0l-24.341-24.34l-24.34,24.34c-6.349,6.349-16.629,6.26-22.782,0c-6.34-6.287-6.34-16.495,0-22.782l24.34-24.34l-24.34-24.341c-6.287-6.287-6.287-16.496,0-22.782c6.287-6.34,16.496-6.34,22.782,0l24.34,24.341l24.341-24.395c6.34-6.287,16.496-6.287,22.836,0.054c6.287,6.287,6.287,16.496,0,22.782l-24.341,24.341L426.654,435.918z"></path><path d="M121.038,111.752c2.677,12.199,13.264,20.719,25.745,20.719c12.303,0,23.132-8.716,25.745-20.721l3.542-16.145v0.003c3.61-16.438-8.928-31.987-25.745-31.987h-7.058c-16.847,0-29.354,15.548-25.773,31.987L121.038,111.752z M143.267,68.827h7.058c13.497,0,23.554,12.478,20.66,25.661v0.003l-3.544,16.147c-2.098,9.633-10.785,16.625-20.658,16.625c-10.015,0-18.512-6.839-20.66-16.63l-3.542-16.14C119.71,81.313,129.737,68.827,143.267,68.827z"></path><path d="M146.771 193.104c43.603 0 78.891-35.501 78.891-78.891 0-43.499-35.391-78.891-78.891-78.891-43.479 0-78.853 35.391-78.853 78.891C67.918 157.063 102.505 193.104 146.771 193.104zM146.771 187.897c-23.029 0-45.253-10.88-59.426-30.23l1.866-5.347c3.45-9.898 12.817-16.547 23.307-16.547h11.599c1.711 0 3.354.88 4.297 2.309l9.733 14.515c4.095 6.126 13.143 6.138 17.246.008l9.781-14.538c.951-1.437 2.553-2.293 4.289-2.293H181.1c10.48 0 19.829 6.649 23.271 16.552l1.867 5.326C191.879 177.258 169.48 187.897 146.771 187.897zM146.771 40.529c40.629 0 73.684 33.055 73.684 73.684 0 13.904-3.875 26.919-10.596 38.028l-.573-1.632c-4.165-11.988-15.491-20.042-28.186-20.042h-11.637c-3.491 0-6.717 1.731-8.622 4.612l-9.773 14.525c-2.047 3.057-6.549 3.057-8.594-.003l-9.725-14.502c-1.914-2.901-5.141-4.632-8.632-4.632h-11.599c-12.702 0-24.044 8.052-28.224 20.04l-.573 1.644C77 141.139 73.125 128.121 73.125 114.213 73.125 73.584 106.162 40.529 146.771 40.529zM69.589 226.423c0 7.661 6.232 13.892 13.892 13.892H357.06c7.66 0 13.892-6.232 13.892-13.892s-6.232-13.892-13.892-13.892H83.481C75.82 212.531 69.589 218.763 69.589 226.423zM365.745 226.423c0 4.79-3.895 8.685-8.685 8.685H83.481c-4.79 0-8.685-3.895-8.685-8.685s3.895-8.685 8.685-8.685H357.06C361.85 217.738 365.745 221.633 365.745 226.423zM357.06 259.709H83.481c-7.661 0-13.892 6.234-13.892 13.895s6.232 13.892 13.892 13.892H357.06c7.66 0 13.892-6.232 13.892-13.892S364.721 259.709 357.06 259.709zM357.06 282.289H83.481c-4.79 0-8.685-3.895-8.685-8.685 0-4.79 3.895-8.688 8.685-8.688H357.06c4.79 0 8.685 3.898 8.685 8.688C365.745 278.394 361.85 282.289 357.06 282.289zM290.355 320.783c0-7.661-6.232-13.892-13.892-13.892H83.481c-7.661 0-13.892 6.232-13.892 13.892s6.232 13.892 13.892 13.892h192.983C284.124 334.675 290.355 328.443 290.355 320.783zM276.463 329.468H83.481c-4.79 0-8.685-3.895-8.685-8.685s3.895-8.685 8.685-8.685h192.983c4.79 0 8.685 3.895 8.685 8.685S281.253 329.468 276.463 329.468zM237.835 354.071H83.481c-7.661 0-13.892 6.232-13.892 13.892s6.232 13.892 13.892 13.892h154.354c7.661 0 13.892-6.232 13.892-13.892S245.496 354.071 237.835 354.071zM237.835 376.649H83.481c-4.79 0-8.685-3.895-8.685-8.685s3.895-8.685 8.685-8.685h154.354c4.79 0 8.685 3.895 8.685 8.685S242.625 376.649 237.835 376.649zM237.835 401.252H83.481c-7.661 0-13.892 6.232-13.892 13.892s6.232 13.892 13.892 13.892h154.354c7.661 0 13.892-6.232 13.892-13.892S245.496 401.252 237.835 401.252zM237.835 423.83H83.481c-4.79 0-8.685-3.895-8.685-8.685 0-4.79 3.895-8.685 8.685-8.685h154.354c4.79 0 8.685 3.895 8.685 8.685C246.52 419.935 242.625 423.83 237.835 423.83zM237.83 448.433H83.481c-7.661 0-13.892 6.232-13.892 13.892 0 7.661 6.232 13.892 13.892 13.892H237.83c7.661 0 13.892-6.232 13.892-13.892C251.722 454.665 245.491 448.433 237.83 448.433zM237.83 471.011H83.481c-4.79 0-8.685-3.895-8.685-8.685 0-4.79 3.895-8.685 8.685-8.685H237.83c4.79 0 8.685 3.895 8.685 8.685C246.515 467.116 242.62 471.011 237.83 471.011z"></path><path d="M478.805,411.529c0-45.105-30.245-83.254-71.513-95.297V101.803c0-0.748-0.373-1.339-0.763-1.841L307.883,1.367c-0.445-0.445-1.322-0.763-1.841-0.763H53.139c-10.996,0-19.943,8.957-19.943,19.969v470.376c0,10.996,8.947,19.943,19.943,19.943c192.528,0.299,291.823,0.968,326.344-0.006C439.622,509.19,478.805,462.551,478.805,411.529z M398.406,99.21h-75.021c-8.131,0-14.744-6.613-14.744-14.744V9.496L398.406,99.21z M53.139,505.685c-8.126,0-14.736-6.61-14.736-14.736V20.573c0-8.139,6.61-14.762,14.736-14.762h250.295v78.654c0,11.001,8.95,19.951,19.951,19.951h78.7v210.452c-7.252-1.692-14.797-2.616-22.557-2.616c-54.791,0-99.368,44.534-99.368,99.277c0,43.71,28.384,80.894,67.678,94.156H53.139z M379.728,505.685c-52.981,0-94.361-43.006-94.361-94.156c0-51.869,42.241-94.07,94.161-94.07c51.869,0,94.07,42.2,94.07,94.07C473.598,463.382,431.505,505.576,379.728,505.685z"></path><path d="M428.494,362.614c-7.294-7.297-19.188-7.33-26.518-0.051l-22.501,22.547l-22.488-22.488c-7.316-7.379-19.174-7.369-26.472-0.008c-7.3,7.3-7.322,19.141,0,26.462l22.499,22.501l-22.491,22.491c-7.385,7.322-7.355,19.188-0.023,26.457c7.113,7.238,19.044,7.446,26.48,0.015l22.498-22.498l22.501,22.498c7.31,7.31,19.201,7.315,26.516,0c7.297-7.297,7.297-19.168,0-26.465l-22.498-22.498l22.498-22.501C435.793,381.777,435.815,369.936,428.494,362.614z M400.473,409.737c-1.017,1.017-1.017,2.665,0,3.682l24.339,24.339c5.266,5.266,5.266,13.836,0,19.102c-5.278,5.278-13.874,5.278-19.153,0l-24.342-24.339c-1.017-1.017-2.665-1.017-3.682,0l-24.339,24.339c-5.185,5.18-13.8,5.394-19.109-0.008c-5.304-5.257-5.338-13.796,0.008-19.094l24.339-24.339c1.017-1.017,1.017-2.665,0-3.682l-24.339-24.342c-5.278-5.273-5.274-13.83,0.008-19.107c5.257-5.304,13.796-5.338,19.094,0.008l24.339,24.339c0.488,0.488,1.149,0.763,1.841,0.763c0,0,0,0,0.003,0c0.689,0,1.353-0.275,1.841-0.765l24.332-24.382c5.293-5.248,13.887-5.227,19.16,0.046c5.274,5.269,5.277,13.827,0,19.099L400.473,409.737z"></path></svg>